<svg version="1.1" id="Layer_1" xmlns="http://www.w3.org/2000/svg" xmlns:xlink="http://www.w3.org/1999/xlink" x="0px" y="0px"
	 width="100%" viewBox="0 0 1066 1082" enable-background="new 0 0 1066 1082" xml:space="preserve">
<path fill="#000000" opacity="1.000000" stroke="none" 
	d="
M1.000010,513.000000 
	C1.000000,342.367218 1.000000,171.734451 1.000000,1.050842 
	C356.228882,1.050842 711.457764,1.050842 1067.000000,1.050842 
	C1067.000000,173.027908 1067.000000,345.056000 1066.605957,517.473267 
	C1065.795166,516.162476 1065.147705,514.481750 1065.004028,512.758972 
	C1064.506104,506.795258 1064.440063,500.787140 1063.751465,494.849060 
	C1060.204346,464.255493 1054.662598,434.067932 1046.295288,404.367279 
	C1033.393555,358.571442 1014.788879,315.263397 989.880432,274.804047 
	C979.007385,257.142670 966.738220,240.308411 954.565247,223.487747 
	C938.713928,201.584396 920.113892,182.011536 900.544250,163.458847 
	C882.321838,146.183411 863.485474,129.485855 842.283142,115.853943 
	C822.005005,102.816193 801.858032,89.452515 780.783752,77.805580 
	C754.408142,63.228783 726.384399,52.059147 697.659485,42.836452 
	C690.569763,40.560135 683.268311,38.943050 675.766785,36.855434 
	C673.450317,34.264042 671.642639,31.611242 669.344849,29.489170 
	C667.532349,27.815256 665.265503,26.068220 662.946289,25.592392 
	C625.915649,17.994743 588.846008,10.587149 551.774658,3.189126 
	C550.354614,2.905735 548.828674,3.153026 546.935547,3.153026 
	C555.519836,8.507051 563.515442,13.493917 571.113037,18.607771 
	C566.914978,18.558979 563.109924,18.159725 559.315613,18.243826 
	C535.369812,18.774595 511.414459,19.129211 487.487488,20.139622 
	C476.217957,20.615520 464.830444,21.560984 453.801483,23.797884 
	C430.048065,28.615572 406.386230,33.986553 382.882080,39.906006 
	C353.386932,47.334274 325.625946,59.492275 298.372406,72.805367 
	C296.769775,73.588234 295.606720,75.270996 293.794861,76.394806 
	C284.233795,74.589775 275.106140,72.981071 266.005646,71.231148 
	C262.592163,70.574768 259.790710,70.923607 256.799011,73.196426 
	C230.712585,93.014542 204.481827,112.642601 178.306656,132.344025 
	C171.347275,137.582169 164.431824,142.878708 157.496201,148.148422 
	C157.596329,148.527176 157.696442,148.905914 157.796555,149.284668 
	C165.713638,149.284668 173.630707,149.284668 181.454437,149.631042 
	C180.267197,151.389328 179.320465,152.951675 178.055695,154.188934 
	C169.381119,162.674850 160.185394,170.678513 152.028122,179.630798 
	C140.184326,192.628906 128.871384,206.129242 117.716843,219.730957 
	C108.981628,230.382599 100.238785,241.113937 92.544907,252.515442 
	C77.278152,275.139191 63.854435,298.887939 52.251747,323.619629 
	C50.897434,326.506439 50.331280,329.763031 48.964283,332.955872 
	C44.434959,333.726288 40.360367,334.710083 36.241566,334.957245 
	C32.466114,335.183807 30.938906,336.838684 30.026827,340.400696 
	C24.593159,361.621155 18.915497,382.779053 13.352980,403.966675 
	C10.300509,415.593536 7.313169,427.237518 4.145377,439.456573 
	C7.584212,438.605316 10.275642,437.939056 12.930794,437.664185 
	C8.856266,461.980988 3.835955,485.769836 2.949618,510.137024 
	C2.914093,511.113708 1.677177,512.046692 1.000010,513.000000 
z"/>
<path fill="#000000" opacity="1.000000" stroke="none" 
	d="
M1067.000000,581.000000 
	C1067.000000,748.262573 1067.000000,915.525146 1067.000000,1083.000000 
	C899.308472,1083.000000 731.616882,1083.000000 563.544434,1082.612915 
	C564.533752,1081.822266 565.887451,1081.138184 567.276611,1081.056519 
	C592.052307,1079.602661 616.587708,1076.344238 640.906006,1071.415283 
	C670.827148,1065.350708 699.996399,1056.691406 728.392639,1045.525269 
	C737.793884,1041.828491 746.851929,1037.259033 756.431641,1033.031372 
	C778.130798,1023.907959 798.163513,1012.458496 817.778320,1000.163269 
	C859.938293,973.735962 897.434692,941.839661 930.642029,904.839966 
	C954.710693,878.022644 975.680542,848.985901 993.882507,817.867371 
	C1009.558289,791.067627 1022.804565,763.165405 1033.627808,734.105042 
	C1036.520752,726.337708 1038.697876,718.303833 1041.430664,710.096680 
	C1046.745239,689.884033 1052.904541,670.164978 1056.629028,649.996338 
	C1060.623535,628.366028 1062.303833,606.309692 1065.096680,584.452454 
	C1065.251587,583.240356 1066.343994,582.148071 1067.000000,581.000000 
z"/>
<path fill="#000000" opacity="1.000000" stroke="none" 
	d="
M505.000000,1083.000000 
	C337.071350,1083.000000 169.142700,1083.000000 1.000000,1083.000000 
	C1.000000,917.308472 1.000000,751.616882 1.400024,585.536377 
	C2.210472,586.497864 2.857199,587.825256 2.992190,589.202698 
	C3.750998,596.945740 4.136826,604.732239 5.109991,612.445923 
	C8.318492,637.877991 13.010463,663.000061 19.631872,687.817871 
	C29.202488,723.689514 42.238976,758.204590 59.328030,791.082275 
	C68.439468,808.611694 78.845558,825.500488 89.250893,842.317322 
	C104.267883,866.587646 121.997025,888.916748 141.546265,909.619690 
	C156.144531,925.079468 171.828308,939.558411 187.551971,953.900391 
	C208.141281,972.680420 230.732727,989.016357 254.731903,1003.038879 
	C276.108673,1015.529175 298.121246,1027.133911 320.622467,1037.451904 
	C359.220886,1055.151367 399.739441,1067.296387 441.722626,1073.905762 
	C461.562622,1077.029297 481.639313,1078.643188 501.595337,1081.051880 
	C502.791168,1081.196289 503.867828,1082.327881 505.000000,1083.000000 
z"/>
<path fill="#2B2D4F" opacity="1.000000" stroke="none" 
	d="
M505.468628,1083.000000 
	C503.867828,1082.327881 502.791168,1081.196289 501.595337,1081.051880 
	C481.639313,1078.643188 461.562622,1077.029297 441.722626,1073.905762 
	C399.739441,1067.296387 359.220886,1055.151367 320.622467,1037.451904 
	C298.121246,1027.133911 276.108673,1015.529175 254.731903,1003.038879 
	C230.732727,989.016357 208.141281,972.680420 187.551971,953.900391 
	C171.828308,939.558411 156.144531,925.079468 141.546265,909.619690 
	C121.997025,888.916748 104.267883,866.587646 89.250893,842.317322 
	C78.845558,825.500488 68.439468,808.611694 59.328030,791.082275 
	C42.238976,758.204590 29.202488,723.689514 19.631872,687.817871 
	C13.010463,663.000061 8.318492,637.877991 5.109991,612.445923 
	C4.136826,604.732239 3.750998,596.945740 2.992190,589.202698 
	C2.857199,587.825256 2.210472,586.497864 1.400024,585.073730 
	C1.000000,573.645752 1.000000,562.291565 1.153588,550.380859 
	C1.204784,549.549622 1.102393,549.274841 1.000001,549.000000 
	C1.000000,537.312439 1.000000,525.624878 1.000010,513.468628 
	C1.677177,512.046692 2.914093,511.113708 2.949618,510.137024 
	C3.835955,485.769836 8.856266,461.980988 13.284796,437.506927 
	C16.650715,436.181763 19.626352,435.405182 22.469147,434.940582 
	C19.170469,437.254822 15.623345,438.755676 14.960465,443.236938 
	C13.146756,455.497986 10.891394,467.698486 9.299380,479.986237 
	C7.582032,493.241394 5.810146,506.539246 5.174205,519.871521 
	C4.455624,534.936340 5.040159,550.060730 4.940217,565.158386 
	C4.785746,588.493286 7.022908,611.577759 11.775579,634.427734 
	C15.181763,650.804077 17.853077,667.362793 21.988075,683.549988 
	C26.467888,701.087036 31.728638,718.474121 37.673084,735.570496 
	C41.780838,747.384460 47.412563,758.694824 52.753590,770.046631 
	C58.740475,782.771179 64.714165,795.539917 71.523422,807.829590 
	C79.119781,821.539856 86.977242,835.203064 95.948463,848.028259 
	C106.364914,862.919617 117.562164,877.355652 129.441498,891.107361 
	C141.283432,904.815735 154.323212,917.496399 166.958344,930.510620 
	C183.188339,947.227722 201.178513,961.889099 219.989700,975.589355 
	C227.443909,981.018311 234.422394,987.145813 242.128403,992.171814 
	C250.939316,997.918335 260.288940,1002.845947 269.459625,1008.031799 
	C279.228149,1013.555786 288.835876,1019.431580 298.922241,1024.309204 
	C312.026581,1030.646240 325.394501,1036.497925 338.907623,1041.913086 
	C352.106354,1047.202148 365.512939,1052.044922 379.049713,1056.394531 
	C389.430878,1059.730225 400.142120,1062.051025 410.733551,1064.715942 
	C418.104065,1066.570312 425.444000,1068.739136 432.932434,1069.890381 
	C447.025421,1072.057495 461.193542,1073.797485 475.372253,1075.327759 
	C489.039886,1076.802856 502.742706,1078.457642 516.461914,1078.816772 
	C532.741577,1079.243286 549.072266,1078.723877 565.348755,1077.944946 
	C577.924500,1077.343140 590.515015,1076.166504 602.982056,1074.413940 
	C616.850647,1072.464355 630.626526,1069.771851 644.367126,1067.024414 
	C654.440125,1065.010254 664.397400,1062.412109 674.393799,1060.022095 
	C679.865112,1058.713989 685.410767,1057.603882 690.745056,1055.860352 
	C699.207275,1053.094727 707.531372,1049.902832 715.894226,1046.837280 
	C726.593750,1042.915161 737.273743,1038.939575 748.259277,1034.926636 
	C749.035767,1034.289551 749.515137,1033.713013 750.336792,1033.096924 
	C751.755554,1032.689331 752.831970,1032.321411 754.217407,1032.014282 
	C755.039856,1032.412964 755.553345,1032.750732 756.066895,1033.088623 
	C746.851929,1037.259033 737.793884,1041.828491 728.392639,1045.525269 
	C699.996399,1056.691406 670.827148,1065.350708 640.906006,1071.415283 
	C616.587708,1076.344238 592.052307,1079.602661 567.276611,1081.056519 
	C565.887451,1081.138184 564.533752,1081.822266 563.081787,1082.612915 
	C543.979126,1083.000000 524.958191,1083.000000 505.468628,1083.000000 
z"/>
<path fill="#2C2D4F" opacity="1.000000" stroke="none" 
	d="
M1067.000000,580.531372 
	C1066.343994,582.148071 1065.251587,583.240356 1065.096680,584.452454 
	C1062.303833,606.309692 1060.623535,628.366028 1056.629028,649.996338 
	C1052.904541,670.164978 1046.745239,689.884033 1041.365356,709.661865 
	C1041.011597,708.944031 1040.950073,708.365295 1040.879883,707.373596 
	C1040.936157,705.307495 1041.000732,703.654297 1041.306641,701.761047 
	C1042.024170,700.008972 1042.500732,698.497070 1042.988525,696.992554 
	C1043.000000,697.000000 1042.979248,696.987732 1043.228027,696.719482 
	C1043.987305,693.971619 1044.498047,691.492065 1045.042725,688.758606 
	C1045.093750,688.334900 1045.110840,688.164978 1045.352295,687.763794 
	C1046.011719,686.312134 1046.447021,685.091736 1046.892822,683.487305 
	C1046.966919,682.080750 1047.030396,681.058350 1047.345581,679.974243 
	C1047.738403,679.276611 1047.879517,678.640564 1048.026123,677.603394 
	C1048.652588,674.992798 1049.467407,672.817444 1049.863159,670.568298 
	C1052.432251,655.967590 1055.023682,641.369141 1057.382935,626.733704 
	C1059.393921,614.258179 1062.403198,601.764587 1062.698120,589.225525 
	C1063.523071,554.132629 1063.992432,518.986694 1059.916504,484.000275 
	C1059.226074,478.072357 1058.547485,472.121338 1057.391724,466.274170 
	C1055.474731,456.574890 1053.237549,446.936829 1051.018677,437.299805 
	C1048.986084,428.471741 1046.997314,419.625366 1044.623291,410.886505 
	C1042.380493,402.630920 1039.733887,394.481598 1037.130493,386.328491 
	C1034.720825,378.782776 1032.291260,371.236298 1029.579102,363.796326 
	C1026.922974,356.510010 1024.066772,349.285400 1020.996460,342.163879 
	C1016.686340,332.166565 1012.403137,322.136505 1007.537537,312.405884 
	C1003.038147,303.407410 997.891907,294.723938 992.838867,286.012878 
	C987.316406,276.492584 981.915771,266.872406 975.824219,257.720215 
	C970.501953,249.723846 964.342651,242.279449 958.466797,234.657791 
	C948.045959,221.140793 938.242249,207.064987 926.903687,194.362549 
	C916.141235,182.305511 904.059326,171.354706 891.981812,160.561844 
	C878.021240,148.086151 863.567444,136.147659 849.050537,124.316116 
	C842.800110,119.221962 835.953369,114.828934 829.190979,110.402473 
	C823.259949,106.520157 817.002441,103.139832 811.009827,99.347160 
	C805.146545,95.636414 799.744385,91.076981 793.598267,87.956757 
	C777.357788,79.711800 761.095337,71.402458 744.334534,64.318733 
	C725.581726,56.393059 706.267517,49.796890 687.208130,42.594231 
	C684.544006,41.587448 683.010559,42.247841 682.466431,45.063019 
	C680.139160,42.283409 678.101685,39.653168 676.064209,37.022919 
	C683.268311,38.943050 690.569763,40.560135 697.659485,42.836452 
	C726.384399,52.059147 754.408142,63.228783 780.783752,77.805580 
	C801.858032,89.452515 822.005005,102.816193 842.283142,115.853943 
	C863.485474,129.485855 882.321838,146.183411 900.544250,163.458847 
	C920.113892,182.011536 938.713928,201.584396 954.565247,223.487747 
	C966.738220,240.308411 979.007385,257.142670 989.880432,274.804047 
	C1014.788879,315.263397 1033.393555,358.571442 1046.295288,404.367279 
	C1054.662598,434.067932 1060.204346,464.255493 1063.751465,494.849060 
	C1064.440063,500.787140 1064.506104,506.795258 1065.004028,512.758972 
	C1065.147705,514.481750 1065.795166,516.162476 1066.605957,517.931213 
	C1067.000000,538.687561 1067.000000,559.375122 1067.000000,580.531372 
z"/>
<path fill="#181410" opacity="1.000000" stroke="none" 
	d="
M1.000001,549.250000 
	C1.102393,549.274841 1.204784,549.549622 1.153588,549.912231 
	C1.000000,550.000000 1.000000,549.500000 1.000001,549.250000 
z"/>
<path fill="#1D2089" opacity="1.000000" stroke="none" 
	d="
M1045.127930,687.995117 
	C1045.110840,688.164978 1045.093750,688.334900 1044.790771,689.023315 
	C1043.996216,692.023865 1043.487793,694.505798 1042.979248,696.987732 
	C1042.979248,696.987732 1043.000000,697.000000 1042.692627,697.187012 
	C1041.945312,698.916382 1041.505371,700.458801 1041.065430,702.001160 
	C1041.000732,703.654297 1040.936157,705.307495 1040.553711,707.507324 
	C1038.907104,710.080688 1037.170776,711.955566 1036.346069,714.169922 
	C1035.149536,717.382324 1034.834717,720.914062 1033.750488,724.178955 
	C1030.628906,733.578064 1027.897827,743.169861 1023.926147,752.208252 
	C1018.446655,764.678101 1012.095825,776.773865 1005.886963,788.911682 
	C1000.556763,799.331726 995.521851,809.980530 989.252563,819.825378 
	C978.439087,836.805847 967.371948,853.692383 955.311218,869.794373 
	C938.883606,891.726440 920.552612,912.029724 900.753235,931.114502 
	C882.657104,948.557678 863.261414,964.276184 843.129272,979.159668 
	C833.294250,986.430603 823.047302,993.167603 812.763489,999.799988 
	C806.028992,1004.143250 798.950439,1007.967896 791.922180,1011.836365 
	C785.707947,1015.256775 779.334045,1018.386108 773.060364,1021.700195 
	C766.657593,1025.082397 760.290894,1028.532837 753.908447,1031.953491 
	C752.831970,1032.321411 751.755554,1032.689331 750.036377,1033.132324 
	C748.916504,1033.800537 748.439331,1034.393799 747.962158,1034.987061 
	C737.273743,1038.939575 726.593750,1042.915161 715.894226,1046.837280 
	C707.531372,1049.902832 699.207275,1053.094727 690.745056,1055.860352 
	C685.410767,1057.603882 679.865112,1058.713989 674.393799,1060.022095 
	C664.397400,1062.412109 654.440125,1065.010254 644.367126,1067.024414 
	C630.626526,1069.771851 616.850647,1072.464355 602.982056,1074.413940 
	C590.515015,1076.166504 577.924500,1077.343140 565.348755,1077.944946 
	C549.072266,1078.723877 532.741577,1079.243286 516.461914,1078.816772 
	C502.742706,1078.457642 489.039886,1076.802856 475.372253,1075.327759 
	C461.193542,1073.797485 447.025421,1072.057495 432.932434,1069.890381 
	C425.444000,1068.739136 418.104065,1066.570312 410.733551,1064.715942 
	C400.142120,1062.051025 389.430878,1059.730225 379.049713,1056.394531 
	C365.512939,1052.044922 352.106354,1047.202148 338.907623,1041.913086 
	C325.394501,1036.497925 312.026581,1030.646240 298.922241,1024.309204 
	C288.835876,1019.431580 279.228149,1013.555786 269.459625,1008.031799 
	C260.288940,1002.845947 250.939316,997.918335 242.128403,992.171814 
	C234.422394,987.145813 227.443909,981.018311 219.989700,975.589355 
	C201.178513,961.889099 183.188339,947.227722 166.958344,930.510620 
	C154.323212,917.496399 141.283432,904.815735 129.441498,891.107361 
	C117.562164,877.355652 106.364914,862.919617 95.948463,848.028259 
	C86.977242,835.203064 79.119781,821.539856 71.523422,807.829590 
	C64.714165,795.539917 58.740475,782.771179 52.753590,770.046631 
	C47.412563,758.694824 41.780838,747.384460 37.673084,735.570496 
	C31.728638,718.474121 26.467888,701.087036 21.988075,683.549988 
	C17.853077,667.362793 15.181763,650.804077 11.775579,634.427734 
	C7.022908,611.577759 4.785746,588.493286 4.940217,565.158386 
	C5.040159,550.060730 4.455624,534.936340 5.174205,519.871521 
	C5.810146,506.539246 7.582032,493.241394 9.299380,479.986237 
	C10.891394,467.698486 13.146756,455.497986 14.960465,443.236938 
	C15.623345,438.755676 19.170469,437.254822 22.482079,434.944763 
	C22.627850,434.636963 22.654146,434.632904 22.954693,434.680786 
	C23.786133,434.512787 24.317026,434.296936 25.199852,433.898895 
	C36.094891,431.381897 46.606758,428.893829 57.186298,426.737854 
	C114.213097,415.116455 171.782928,412.201721 229.679733,417.245544 
	C280.443665,421.667999 329.768555,432.697815 377.547455,450.792206 
	C449.539734,478.056488 512.091125,519.613281 566.454468,573.819275 
	C616.528503,623.748352 656.394348,681.106873 689.711365,743.247742 
	C691.527222,746.634705 690.472046,748.022339 688.105835,750.176575 
	C664.705750,771.480164 665.406616,808.862976 689.478821,829.140991 
	C715.890808,851.389893 753.704529,844.449890 770.613708,814.250244 
	C787.186646,784.651245 770.782288,746.145447 737.676514,738.042175 
	C729.629578,736.072449 721.016479,736.415527 711.970703,735.635437 
	C711.085144,733.025940 709.870728,729.257935 708.532959,725.534241 
	C694.035828,685.181458 675.547607,646.730774 653.328064,610.073486 
	C612.139465,542.121399 560.946594,483.125366 497.007111,435.537537 
	C454.947296,404.233887 409.382660,379.405640 360.100952,361.494415 
	C310.889587,343.608734 260.089233,333.098572 207.926483,328.787354 
	C165.619354,325.290710 123.378555,325.892487 81.148422,329.787842 
	C70.561508,330.764374 59.982422,331.825775 49.399738,332.848175 
	C50.331280,329.763031 50.897434,326.506439 52.251747,323.619629 
	C63.854435,298.887939 77.278152,275.139191 92.544907,252.515442 
	C100.238785,241.113937 108.981628,230.382599 117.716843,219.730957 
	C128.871384,206.129242 140.184326,192.628906 152.028122,179.630798 
	C160.185394,170.678513 169.381119,162.674850 178.055695,154.188934 
	C179.320465,152.951675 180.267197,151.389328 181.804169,149.550705 
	C200.804962,150.828156 219.494080,151.652237 237.896042,154.399582 
	C295.780701,163.041519 351.222809,180.014267 404.185944,205.027817 
	C456.923889,229.935013 505.089020,261.805817 548.762817,300.374054 
	C594.072815,340.387299 633.146423,385.900818 666.392273,436.374451 
	C676.428467,451.611389 685.929688,467.200806 695.645874,482.581146 
	C693.526184,484.843292 691.895813,486.493073 690.365356,488.230865 
	C678.223450,502.017609 675.574402,523.590637 684.032654,539.609802 
	C697.337952,564.808777 725.453857,573.108215 750.382507,559.195496 
	C766.878601,549.988953 776.235107,529.411499 772.699341,510.114624 
	C769.204895,491.043121 752.453552,474.095093 733.622070,472.534454 
	C725.013306,471.821014 721.553406,466.976685 719.264343,460.568512 
	C703.237793,415.702545 681.611145,373.609253 655.924927,333.634460 
	C609.701172,261.697906 551.864502,200.978577 480.041382,154.049240 
	C438.449371,126.872986 393.956543,105.725227 346.543549,90.920547 
	C329.293335,85.534164 311.684357,81.296661 294.239075,76.534996 
	C295.606720,75.270996 296.769775,73.588234 298.372406,72.805367 
	C325.625946,59.492275 353.386932,47.334274 382.882080,39.906006 
	C406.386230,33.986553 430.048065,28.615572 453.801483,23.797884 
	C464.830444,21.560984 476.217957,20.615520 487.487488,20.139622 
	C511.414459,19.129211 535.369812,18.774595 559.315613,18.243826 
	C563.109924,18.159725 566.914978,18.558979 571.366455,18.672680 
	C622.348755,51.930920 667.247070,91.286461 705.539490,138.095718 
	C737.960754,177.728058 763.772217,221.101334 781.361023,269.285492 
	C782.421570,272.190979 782.263916,273.963593 780.074219,276.264008 
	C766.814758,290.193756 764.250916,308.326080 773.648193,324.916779 
	C782.262451,340.125092 795.893555,347.268646 813.189941,345.746643 
	C830.066528,344.261597 842.146667,335.065521 847.975891,319.096497 
	C854.085388,302.359985 850.330078,287.305389 837.594604,274.804260 
	C828.658386,266.032440 817.448181,263.074554 805.191833,263.613617 
	C802.353760,255.129898 799.889404,246.850143 796.838806,238.792358 
	C776.624634,185.399429 748.747375,136.131134 715.814941,89.657776 
	C705.142273,74.596817 693.794983,60.013950 682.756287,45.212395 
	C683.010559,42.247841 684.544006,41.587448 687.208130,42.594231 
	C706.267517,49.796890 725.581726,56.393059 744.334534,64.318733 
	C761.095337,71.402458 777.357788,79.711800 793.598267,87.956757 
	C799.744385,91.076981 805.146545,95.636414 811.009827,99.347160 
	C817.002441,103.139832 823.259949,106.520157 829.190979,110.402473 
	C835.953369,114.828934 842.800110,119.221962 849.050537,124.316116 
	C863.567444,136.147659 878.021240,148.086151 891.981812,160.561844 
	C904.059326,171.354706 916.141235,182.305511 926.903687,194.362549 
	C938.242249,207.064987 948.045959,221.140793 958.466797,234.657791 
	C964.342651,242.279449 970.501953,249.723846 975.824219,257.720215 
	C981.915771,266.872406 987.316406,276.492584 992.838867,286.012878 
	C997.891907,294.723938 1003.038147,303.407410 1007.537537,312.405884 
	C1012.403137,322.136505 1016.686340,332.166565 1020.996460,342.163879 
	C1024.066772,349.285400 1026.922974,356.510010 1029.579102,363.796326 
	C1032.291260,371.236298 1034.720825,378.782776 1037.130493,386.328491 
	C1039.733887,394.481598 1042.380493,402.630920 1044.623291,410.886505 
	C1046.997314,419.625366 1048.986084,428.471741 1051.018677,437.299805 
	C1053.237549,446.936829 1055.474731,456.574890 1057.391724,466.274170 
	C1058.547485,472.121338 1059.226074,478.072357 1059.916504,484.000275 
	C1063.992432,518.986694 1063.523071,554.132629 1062.698120,589.225525 
	C1062.403198,601.764587 1059.393921,614.258179 1057.382935,626.733704 
	C1055.023682,641.369141 1052.432251,655.967590 1049.863159,670.568298 
	C1049.467407,672.817444 1048.652588,674.992798 1047.812744,677.801270 
	C1047.427124,678.945496 1047.260498,679.490662 1047.093872,680.035889 
	C1047.030396,681.058350 1046.966919,682.080750 1046.576660,683.631470 
	C1045.875977,685.438171 1045.501953,686.716675 1045.127930,687.995117 
z"/>
<path fill="#FCFCFD" opacity="1.000000" stroke="none" 
	d="
M48.964279,332.955872 
	C59.982422,331.825775 70.561508,330.764374 81.148422,329.787842 
	C123.378555,325.892487 165.619354,325.290710 207.926483,328.787354 
	C260.089233,333.098572 310.889587,343.608734 360.100952,361.494415 
	C409.382660,379.405640 454.947296,404.233887 497.007111,435.537537 
	C560.946594,483.125366 612.139465,542.121399 653.328064,610.073486 
	C675.547607,646.730774 694.035828,685.181458 708.532959,725.534241 
	C709.870728,729.257935 711.085144,733.025940 711.970703,735.635437 
	C721.016479,736.415527 729.629578,736.072449 737.676514,738.042175 
	C770.782288,746.145447 787.186646,784.651245 770.613708,814.250244 
	C753.704529,844.449890 715.890808,851.389893 689.478821,829.140991 
	C665.406616,808.862976 664.705750,771.480164 688.105835,750.176575 
	C690.472046,748.022339 691.527222,746.634705 689.711365,743.247742 
	C656.394348,681.106873 616.528503,623.748352 566.454468,573.819275 
	C512.091125,519.613281 449.539734,478.056488 377.547455,450.792206 
	C329.768555,432.697815 280.443665,421.667999 229.679733,417.245544 
	C171.782928,412.201721 114.213097,415.116455 57.186298,426.737854 
	C46.606758,428.893829 36.094891,431.381897 24.907965,433.857300 
	C23.727472,434.209534 23.190804,434.421204 22.654140,434.632874 
	C22.654146,434.632904 22.627850,434.636963 22.614918,434.632751 
	C19.626352,435.405182 16.650715,436.181763 13.321075,437.115601 
	C10.275642,437.939056 7.584212,438.605316 4.145377,439.456573 
	C7.313169,427.237518 10.300509,415.593536 13.352980,403.966675 
	C18.915497,382.779053 24.593159,361.621155 30.026827,340.400696 
	C30.938906,336.838684 32.466114,335.183807 36.241566,334.957245 
	C40.360367,334.710083 44.434959,333.726288 48.964279,332.955872 
M701.665222,805.966797 
	C701.218384,810.160034 704.036133,810.117371 706.812988,809.754211 
	C713.359131,808.898071 718.616272,809.925598 719.885437,817.715698 
	C720.384766,820.780518 722.773132,821.347534 725.156372,820.677673 
	C726.922791,820.181213 729.611694,818.927612 729.835938,817.650696 
	C731.120667,810.335999 735.675720,808.844849 742.045044,809.780884 
	C742.859436,809.900513 743.718140,809.702087 744.538452,809.800171 
	C747.910767,810.203552 748.812561,808.574890 748.770508,805.424805 
	C748.632935,795.102661 748.817932,784.776245 748.687927,774.453918 
	C748.554749,763.873962 750.239319,765.093506 739.371155,765.413086 
	C734.293945,765.562378 731.460083,764.156372 730.639587,759.172363 
	C729.867065,754.479431 726.300659,753.534241 722.939819,754.857666 
	C720.892700,755.663696 719.286255,758.738220 718.428345,761.132874 
	C717.279175,764.340759 715.702576,765.632324 712.261963,765.298706 
	C708.879272,764.970642 705.439880,765.227173 701.655945,765.227173 
	C701.655945,779.129822 701.655945,792.095337 701.665222,805.966797 
z"/>
<path fill="#FCFCFC" opacity="1.000000" stroke="none" 
	d="
M293.794861,76.394798 
	C311.684357,81.296661 329.293335,85.534164 346.543549,90.920547 
	C393.956543,105.725227 438.449371,126.872986 480.041382,154.049240 
	C551.864502,200.978577 609.701172,261.697906 655.924927,333.634460 
	C681.611145,373.609253 703.237793,415.702545 719.264343,460.568512 
	C721.553406,466.976685 725.013306,471.821014 733.622070,472.534454 
	C752.453552,474.095093 769.204895,491.043121 772.699341,510.114624 
	C776.235107,529.411499 766.878601,549.988953 750.382507,559.195496 
	C725.453857,573.108215 697.337952,564.808777 684.032654,539.609802 
	C675.574402,523.590637 678.223450,502.017609 690.365356,488.230865 
	C691.895813,486.493073 693.526184,484.843292 695.645874,482.581146 
	C685.929688,467.200806 676.428467,451.611389 666.392273,436.374451 
	C633.146423,385.900818 594.072815,340.387299 548.762817,300.374054 
	C505.089020,261.805817 456.923889,229.935013 404.185944,205.027817 
	C351.222809,180.014267 295.780701,163.041519 237.896042,154.399582 
	C219.494080,151.652237 200.804962,150.828156 181.897522,149.204346 
	C173.630707,149.284668 165.713638,149.284668 157.796555,149.284668 
	C157.696442,148.905914 157.596329,148.527176 157.496201,148.148422 
	C164.431824,142.878708 171.347275,137.582169 178.306656,132.344025 
	C204.481827,112.642601 230.712585,93.014542 256.799011,73.196426 
	C259.790710,70.923607 262.592163,70.574768 266.005646,71.231148 
	C275.106140,72.981071 284.233795,74.589775 293.794861,76.394798 
M750.084961,540.111267 
	C750.084961,525.548157 750.084961,510.985046 750.084961,495.949951 
	C747.173035,495.949951 744.872498,495.986755 742.573486,495.943665 
	C732.130432,495.747864 734.869812,497.536591 731.044312,488.125854 
	C730.024597,485.617249 728.919067,484.494110 726.046021,484.538727 
	C723.017822,484.585785 721.317993,485.223297 720.192200,488.397156 
	C717.479797,496.043640 717.269653,495.968323 709.007507,495.955872 
	C706.743652,495.952454 704.479797,495.955322 701.762512,495.955322 
	C701.762512,509.271484 701.760742,521.883057 701.763245,534.494690 
	C701.764709,541.771912 701.770935,541.629333 708.983704,541.786438 
	C718.637268,541.996582 716.651062,540.090820 720.156738,549.393738 
	C721.199829,552.161743 722.500916,553.146179 725.482544,553.286377 
	C729.073181,553.455139 730.672241,551.957214 731.314026,548.784180 
	C732.450989,543.163330 735.608093,540.784241 741.508789,541.647461 
	C744.168701,542.036499 747.002075,541.239807 750.084961,540.111267 
z"/>
<path fill="#FBFBFB" opacity="1.000000" stroke="none" 
	d="
M682.466431,45.063019 
	C693.794983,60.013950 705.142273,74.596817 715.814941,89.657776 
	C748.747375,136.131134 776.624634,185.399429 796.838806,238.792358 
	C799.889404,246.850143 802.353760,255.129898 805.191833,263.613617 
	C817.448181,263.074554 828.658386,266.032440 837.594604,274.804260 
	C850.330078,287.305389 854.085388,302.359985 847.975891,319.096497 
	C842.146667,335.065521 830.066528,344.261597 813.189941,345.746643 
	C795.893555,347.268646 782.262451,340.125092 773.648193,324.916779 
	C764.250916,308.326080 766.814758,290.193756 780.074219,276.264008 
	C782.263916,273.963593 782.421570,272.190979 781.361023,269.285492 
	C763.772217,221.101334 737.960754,177.728058 705.539490,138.095718 
	C667.247070,91.286461 622.348755,51.930920 571.764404,18.545692 
	C563.515442,13.493917 555.519836,8.507051 546.935547,3.153026 
	C548.828674,3.153026 550.354614,2.905735 551.774658,3.189126 
	C588.846008,10.587149 625.915649,17.994743 662.946289,25.592392 
	C665.265503,26.068220 667.532349,27.815256 669.344849,29.489170 
	C671.642639,31.611242 673.450317,34.264042 675.766785,36.855438 
	C678.101685,39.653168 680.139160,42.283409 682.466431,45.063019 
M807.623108,285.945953 
	C806.136719,294.410461 798.621643,289.412201 794.239624,291.777252 
	C794.239624,303.082428 794.239624,314.313232 794.239624,325.790497 
	C795.260315,325.931824 796.051575,326.161255 796.832458,326.130066 
	C801.898132,325.927856 806.649475,325.595123 808.233337,332.438812 
	C808.876953,335.219604 816.314514,334.408722 817.092407,331.347321 
	C818.320984,326.512390 821.323120,325.678497 825.562500,326.122711 
	C827.279480,326.302582 829.046204,326.007721 831.099670,325.914886 
	C831.099670,319.697144 831.099670,314.061676 831.099670,308.426239 
	C831.099670,302.695465 831.099670,296.964691 831.099670,291.066498 
	C827.665955,291.066498 825.094299,291.452576 822.717529,290.938171 
	C820.973267,290.560669 818.816528,289.371124 818.005920,287.902161 
	C815.499023,283.358490 813.033936,282.484711 807.623108,285.945953 
z"/>
<path fill="#2A2B52" opacity="1.000000" stroke="none" 
	d="
M754.217407,1032.014282 
	C760.290894,1028.532837 766.657593,1025.082397 773.060364,1021.700195 
	C779.334045,1018.386108 785.707947,1015.256775 791.922180,1011.836365 
	C798.950439,1007.967896 806.028992,1004.143250 812.763489,999.799988 
	C823.047302,993.167603 833.294250,986.430603 843.129272,979.159668 
	C863.261414,964.276184 882.657104,948.557678 900.753235,931.114502 
	C920.552612,912.029724 938.883606,891.726440 955.311218,869.794373 
	C967.371948,853.692383 978.439087,836.805847 989.252563,819.825378 
	C995.521851,809.980530 1000.556763,799.331726 1005.886963,788.911682 
	C1012.095825,776.773865 1018.446655,764.678101 1023.926147,752.208252 
	C1027.897827,743.169861 1030.628906,733.578064 1033.750488,724.178955 
	C1034.834717,720.914062 1035.149536,717.382324 1036.346069,714.169922 
	C1037.170776,711.955566 1038.907104,710.080688 1040.562256,707.920288 
	C1040.950073,708.365295 1041.011597,708.944031 1041.138428,709.957581 
	C1038.697876,718.303833 1036.520752,726.337708 1033.627808,734.105042 
	C1022.804565,763.165405 1009.558289,791.067627 993.882507,817.867371 
	C975.680542,848.985901 954.710693,878.022644 930.642029,904.839966 
	C897.434692,941.839661 859.938293,973.735962 817.778320,1000.163269 
	C798.163513,1012.458496 778.130798,1023.907959 756.431641,1033.031372 
	C755.553345,1032.750732 755.039856,1032.412964 754.217407,1032.014282 
z"/>
<path fill="#2A2B52" opacity="1.000000" stroke="none" 
	d="
M748.259277,1034.926514 
	C748.439331,1034.393799 748.916504,1033.800537 749.694092,1033.171875 
	C749.515137,1033.713013 749.035767,1034.289551 748.259277,1034.926514 
z"/>
<path fill="#262861" opacity="1.000000" stroke="none" 
	d="
M1043.228027,696.719482 
	C1043.487793,694.505798 1043.996216,692.023865 1044.756714,689.277222 
	C1044.498047,691.492065 1043.987305,693.971619 1043.228027,696.719482 
z"/>
<path fill="#262861" opacity="1.000000" stroke="none" 
	d="
M1041.306641,701.761047 
	C1041.505371,700.458801 1041.945312,698.916382 1042.681152,697.179565 
	C1042.500732,698.497070 1042.024170,700.008972 1041.306641,701.761047 
z"/>
<path fill="#262861" opacity="1.000000" stroke="none" 
	d="
M1045.352295,687.763794 
	C1045.501953,686.716675 1045.875977,685.438171 1046.566162,684.015503 
	C1046.447021,685.091736 1046.011719,686.312134 1045.352295,687.763794 
z"/>
<path fill="#262861" opacity="1.000000" stroke="none" 
	d="
M1047.345581,679.974243 
	C1047.260498,679.490662 1047.427124,678.945496 1047.807129,678.202454 
	C1047.879517,678.640564 1047.738403,679.276611 1047.345581,679.974243 
z"/>
<path fill="#2B2D4F" opacity="1.000000" stroke="none" 
	d="
M22.954687,434.680756 
	C23.190804,434.421204 23.727472,434.209534 24.556030,434.039490 
	C24.317026,434.296936 23.786133,434.512787 22.954687,434.680756 
z"/>
<path fill="#E34046" opacity="1.000000" stroke="none" 
	d="
M701.660583,805.513794 
	C701.655945,792.095337 701.655945,779.129822 701.655945,765.227173 
	C705.439880,765.227173 708.879272,764.970642 712.261963,765.298706 
	C715.702576,765.632324 717.279175,764.340759 718.428345,761.132874 
	C719.286255,758.738220 720.892700,755.663696 722.939819,754.857666 
	C726.300659,753.534241 729.867065,754.479431 730.639587,759.172363 
	C731.460083,764.156372 734.293945,765.562378 739.371155,765.413086 
	C750.239319,765.093506 748.554749,763.873962 748.687927,774.453918 
	C748.817932,784.776245 748.632935,795.102661 748.770508,805.424805 
	C748.812561,808.574890 747.910767,810.203552 744.538452,809.800171 
	C743.718140,809.702087 742.859436,809.900513 742.045044,809.780884 
	C735.675720,808.844849 731.120667,810.335999 729.835938,817.650696 
	C729.611694,818.927612 726.922791,820.181213 725.156372,820.677673 
	C722.773132,821.347534 720.384766,820.780518 719.885437,817.715698 
	C718.616272,809.925598 713.359131,808.898071 706.812988,809.754211 
	C704.036133,810.117371 701.218384,810.160034 701.660583,805.513794 
M724.523743,769.422668 
	C722.092346,777.088379 715.079346,772.261658 710.358215,774.651978 
	C710.358215,783.210388 710.358215,791.913818 710.358215,800.537231 
	C715.257629,802.736084 722.392395,797.633972 724.897705,807.109985 
	C727.614868,797.450928 735.125854,803.036194 739.729431,800.582581 
	C739.729431,791.707031 739.729431,783.006714 739.729431,773.870483 
	C736.987183,773.870483 734.646484,773.605469 732.390625,773.930359 
	C728.669434,774.466248 726.439819,772.992065 724.523743,769.422668 
z"/>
<path fill="#DF3B41" opacity="1.000000" stroke="none" 
	d="
M749.920898,540.546265 
	C747.002075,541.239807 744.168701,542.036499 741.508789,541.647461 
	C735.608093,540.784241 732.450989,543.163330 731.314026,548.784180 
	C730.672241,551.957214 729.073181,553.455139 725.482544,553.286377 
	C722.500916,553.146179 721.199829,552.161743 720.156738,549.393738 
	C716.651062,540.090820 718.637268,541.996582 708.983704,541.786438 
	C701.770935,541.629333 701.764709,541.771912 701.763245,534.494690 
	C701.760742,521.883057 701.762512,509.271484 701.762512,495.955322 
	C704.479797,495.955322 706.743652,495.952454 709.007507,495.955872 
	C717.269653,495.968323 717.479797,496.043640 720.192200,488.397156 
	C721.317993,485.223297 723.017822,484.585785 726.046021,484.538727 
	C728.919067,484.494110 730.024597,485.617249 731.044312,488.125854 
	C734.869812,497.536591 732.130432,495.747864 742.573486,495.943665 
	C744.872498,495.986755 747.173035,495.949951 750.084961,495.949951 
	C750.084961,510.985046 750.084961,525.548157 749.920898,540.546265 
M723.951843,502.037628 
	C722.461548,502.763947 721.023438,503.939178 719.469788,504.119568 
	C716.565979,504.456696 713.595215,504.216522 710.072144,504.216522 
	C710.072144,512.537659 710.307495,520.161377 709.981201,527.760986 
	C709.794434,532.110474 711.020813,533.887390 715.540344,533.293457 
	C719.990662,532.708801 724.478394,532.596619 725.476807,539.397949 
	C727.990356,529.258057 736.289795,535.031433 741.466919,532.632629 
	C741.622986,532.076782 741.866089,531.611389 741.867859,531.145081 
	C741.896240,523.651917 741.734192,516.153748 741.967896,508.667694 
	C742.079407,505.096893 740.770935,504.058289 737.354187,504.170624 
	C732.703125,504.323517 727.150757,506.078186 725.857910,498.260071 
	C724.975891,499.889526 724.580505,500.620026 723.951843,502.037628 
z"/>
<path fill="#E1393F" opacity="1.000000" stroke="none" 
	d="
M807.794922,285.562958 
	C813.033936,282.484711 815.499023,283.358490 818.005920,287.902161 
	C818.816528,289.371124 820.973267,290.560669 822.717529,290.938171 
	C825.094299,291.452576 827.665955,291.066498 831.099670,291.066498 
	C831.099670,296.964691 831.099670,302.695465 831.099670,308.426239 
	C831.099670,314.061676 831.099670,319.697144 831.099670,325.914886 
	C829.046204,326.007721 827.279480,326.302582 825.562500,326.122711 
	C821.323120,325.678497 818.320984,326.512390 817.092407,331.347321 
	C816.314514,334.408722 808.876953,335.219604 808.233337,332.438812 
	C806.649475,325.595123 801.898132,325.927856 796.832458,326.130066 
	C796.051575,326.161255 795.260315,325.931824 794.239624,325.790497 
	C794.239624,314.313232 794.239624,303.082428 794.239624,291.777252 
	C798.621643,289.412201 806.136719,294.410461 807.794922,285.562958 
M810.510742,318.032532 
	C814.482727,318.032532 818.454712,318.032532 822.870361,318.032532 
	C822.870361,312.238403 823.037292,307.286865 822.737549,302.363770 
	C822.673096,301.305450 820.972229,299.548157 819.939880,299.483917 
	C815.154358,299.186249 810.327759,299.200714 805.541992,299.508636 
	C804.401733,299.582001 802.484070,301.159515 802.423035,302.138641 
	C802.106628,307.217987 802.275818,312.327545 802.275818,317.953583 
	C805.153625,317.953583 807.432068,317.953583 810.510742,318.032532 
z"/>
<path fill="#FDF9F8" opacity="1.000000" stroke="none" 
	d="
M724.887512,769.504395 
	C726.439819,772.992065 728.669434,774.466248 732.390625,773.930359 
	C734.646484,773.605469 736.987183,773.870483 739.729431,773.870483 
	C739.729431,783.006714 739.729431,791.707031 739.729431,800.582581 
	C735.125854,803.036194 727.614868,797.450928 724.897705,807.109985 
	C722.392395,797.633972 715.257629,802.736084 710.358215,800.537231 
	C710.358215,791.913818 710.358215,783.210388 710.358215,774.651978 
	C715.079346,772.261658 722.092346,777.088379 724.887512,769.504395 
z"/>
<path fill="#FCF6F5" opacity="1.000000" stroke="none" 
	d="
M724.068481,501.694092 
	C724.580505,500.620026 724.975891,499.889526 725.857910,498.260071 
	C727.150757,506.078186 732.703125,504.323517 737.354187,504.170624 
	C740.770935,504.058289 742.079407,505.096893 741.967896,508.667694 
	C741.734192,516.153748 741.896240,523.651917 741.867859,531.145081 
	C741.866089,531.611389 741.622986,532.076782 741.466919,532.632629 
	C736.289795,535.031433 727.990356,529.258057 725.476807,539.397949 
	C724.478394,532.596619 719.990662,532.708801 715.540344,533.293457 
	C711.020813,533.887390 709.794434,532.110474 709.981201,527.760986 
	C710.307495,520.161377 710.072144,512.537659 710.072144,504.216522 
	C713.595215,504.216522 716.565979,504.456696 719.469788,504.119568 
	C721.023438,503.939178 722.461548,502.763947 724.068481,501.694092 
z"/>
<path fill="#FAEDED" opacity="1.000000" stroke="none" 
	d="
M810.110596,317.993042 
	C807.432068,317.953583 805.153625,317.953583 802.275818,317.953583 
	C802.275818,312.327545 802.106628,307.217987 802.423035,302.138641 
	C802.484070,301.159515 804.401733,299.582001 805.541992,299.508636 
	C810.327759,299.200714 815.154358,299.186249 819.939880,299.483917 
	C820.972229,299.548157 822.673096,301.305450 822.737549,302.363770 
	C823.037292,307.286865 822.870361,312.238403 822.870361,318.032532 
	C818.454712,318.032532 814.482727,318.032532 810.110596,317.993042 
z"/>

</svg>
